<?xml version="1.0" encoding="UTF-8"?>
<svg id="Layer_1" data-name="Layer 1" xmlns="http://www.w3.org/2000/svg" viewBox="0 0 1080 1080">
  <defs>
    <style>
      .cls-1 {
        stroke: #74c262;
      }

      .cls-1, .cls-2 {
        fill: none;
        stroke-linecap: round;
        stroke-linejoin: round;
        stroke-width: 11px;
      }

      .cls-2 {
        stroke: #fff;
      }

      .cls-3 {
        fill: #15803d;
      }
    </style>
  </defs>
  <rect class="cls-3" width="1080" height="1080"/>
  <g id="Outline">
    <polyline class="cls-2" points="626.47 392.05 683.67 392.05 757 480.05 757 548.49 346.33 548.49 346.33 480.05 419.67 392.05 477.96 392.05"/>
    <polyline class="cls-2" points="361 548.49 361 762.62 742.33 762.62 742.33 548.49"/>
    <line class="cls-2" x1="346.33" y1="480.05" x2="757" y2="480.05"/>
    <g>
      <line class="cls-2" x1="551.67" y1="306.9" x2="551.67" y2="324.58"/>
      <line class="cls-2" x1="551.67" y1="387.16" x2="551.67" y2="403.55"/>
      <path class="cls-2" d="M527.22,387.16h33.24c8.64,0,15.64-7,15.64-15.64h0c0-8.64-7-15.64-15.64-15.64h-17.6c-8.64,0-15.64-7-15.64-15.64h0c0-8.64,7-15.64,15.64-15.64h33.24"/>
    </g>
    <circle class="cls-1" cx="551.67" cy="355.87" r="78.22"/>
    <path class="cls-1" d="M551.67,729.4l-70.06-70.33c-17.45-17.52-17.39-45.86.12-63.31,17.51-17.45,45.86-17.39,63.31.12l6.63,6.66,6.63-6.66c17.45-17.51,45.79-17.57,63.3-.12,17.52,17.45,17.57,45.79.12,63.31l-70.06,70.33Z"/>
    <line class="cls-2" x1="453.89" y1="434.09" x2="649.44" y2="434.09"/>
  </g>
</svg>