<?xml version="1.0" encoding="UTF-8"?>
<svg id="Layer_1" data-name="Layer 1" xmlns="http://www.w3.org/2000/svg" viewBox="0 0 1080 1080">
  <defs>
    <style>
      .cls-1 {
        fill: #74c262;
      }

      .cls-2 {
        stroke: #15803d;
      }

      .cls-2, .cls-3 {
        fill: none;
        stroke-linecap: round;
        stroke-linejoin: round;
        stroke-width: 11px;
      }

      .cls-3 {
        stroke: #fff;
      }
    </style>
  </defs>
  <rect class="cls-1" width="1080" height="1080"/>
  <g>
    <g>
      <path class="cls-3" d="M512.18,669.85h100.67l80.41-80.41c20.08-20.08,49.71-18.87,71.3,2.72l-129.69,140.16c-4.91,5.3-11.81,7.67-18.51,7.67h-246.8"/>
      <path class="cls-3" d="M577.09,669.85c14.39,0,26.17-11.78,26.17-26.17s-11.78-26.17-26.17-26.17h-64.91c-33.26-19.95-78.38-24.75-114.64,17.8h-27.98"/>
      <rect class="cls-3" x="274.56" y="605.3" width="90" height="164.7"/>
      <line class="cls-3" x1="319.55" y1="650.3" x2="319.56" y2="650.3"/>
    </g>
    <g>
      <path class="cls-2" d="M642.06,458.18c65.95-114.23-55.33-190.14-122.51-122.96-67.18-67.18-188.46,8.73-122.51,122.96,30.35,52.57,91.57,100.77,122.51,109.06,30.94-8.29,92.15-56.49,122.51-109.06Z"/>
      <polygon class="cls-2" points="495.97 386.2 543.15 386.2 543.15 415.03 571.98 415.03 571.98 462.21 543.15 462.21 543.15 491.04 495.97 491.04 495.97 462.21 467.13 462.21 467.13 415.03 495.97 415.03 495.97 386.2"/>
    </g>
  </g>
</svg>