<?xml version="1.0" encoding="UTF-8"?>
<svg id="Layer_1" data-name="Layer 1" xmlns="http://www.w3.org/2000/svg" viewBox="0 0 1080 1080">
  <defs>
    <style>
      .cls-1 {
        stroke: #15803d;
      }

      .cls-1, .cls-2 {
        fill: none;
        stroke-linecap: round;
        stroke-linejoin: round;
        stroke-width: 11px;
      }

      .cls-2 {
        stroke: #74c262;
      }
    </style>
  </defs>
  <g>
    <g>
      <path class="cls-1" d="M388.32,658.25l22.32-23.69c14.61-16.59,35.66-26.1,57.77-26.1h0c13.83,0,27.41,3.73,39.3,10.79h0c9.28,5.51,19.87,8.42,30.67,8.42h32.71c14.21,0,25.73,11.52,25.73,25.73h0c0,14.21-11.52,25.73-25.73,25.73h-55.8"/>
      <path class="cls-1" d="M594.98,663.35l103.57-75.91c10.87-7.97,26.12-5.81,34.35,4.86h0c8.39,10.86,6.38,26.48-4.49,34.86l-114.72,88.48c-12.4,9.56-27.61,14.75-43.27,14.75h-76.79c-10.02,0-19.7,3.29-27.6,9.26"/>
    </g>
    <g>
      <g>
        <path class="cls-2" d="M541.26,547h139.33v-37.38c0-37.97-31.19-68.75-69.67-68.75h0c-16.21,0-31.12,5.48-42.96,14.65"/>
        <ellipse class="cls-2" cx="610.92" cy="403.52" rx="37.85" ry="37.36"/>
      </g>
      <g>
        <path class="cls-2" d="M512.04,455.52c-11.83-9.17-26.74-14.64-42.96-14.64h0c-38.48,0-69.67,30.78-69.67,68.75v37.38h86.12"/>
        <ellipse class="cls-2" cx="469.08" cy="403.52" rx="37.85" ry="37.36"/>
      </g>
      <g>
        <path class="cls-2" d="M594.46,547h0c0-29.68-24.38-53.75-54.46-53.75h0c-30.08,0-54.46,24.06-54.46,53.75h108.93Z"/>
        <ellipse class="cls-2" cx="540" cy="464.3" rx="29.34" ry="28.95"/>
      </g>
    </g>
  </g>
  <g>
    <rect class="cls-1" x="379.81" y="655.13" width="54.26" height="129.68" transform="translate(-389.9 498.63) rotate(-45)"/>
    <path class="cls-1" d="M537.14,354.71l-25.49-25.49c-7.83-7.83-7.83-20.52,0-28.35h0c7.83-7.83,20.52-7.83,28.35,0,7.83-7.83,20.52-7.83,28.35,0h0c7.83,7.83,7.83,20.52,0,28.35l-25.49,25.49c-1.58,1.58-4.14,1.58-5.72,0Z"/>
  </g>
</svg>