<?xml version="1.0" encoding="UTF-8"?>
<svg id="Layer_1" data-name="Layer 1" xmlns="http://www.w3.org/2000/svg" viewBox="0 0 1080 1080">
  <defs>
    <style>
      .cls-1 {
        fill: #fff;
      }

      .cls-2 {
        fill: #74c262;
      }

      .cls-3 {
        fill: #15803d;
      }
    </style>
  </defs>
  <rect class="cls-1" y="779.73" width="1080" height="300.27"/>
  <rect class="cls-3" width="1080" height="564.73"/>
  <rect class="cls-2" y="564.73" width="1080" height="300.27"/>
  <g>
    <path class="cls-1" d="M54.55,506.47c-1.42-.03-2.67-.42-3.74-1.2-1.08-.77-1.64-1.86-1.69-3.25-.03-1.04.3-1.98.99-2.81.68-.84,1.76-1.3,3.23-1.41,2.64-.13,8.55-.34,17.75-.63,9.2-.29,15.21-.41,18.02-.36,1.24,0,2.32.3,3.23.91s1.44,1.76,1.6,3.46c.08,1.62-.39,2.77-1.39,3.44-1,.67-2.24,1.03-3.71,1.08-12.65.66-24.08.91-34.29.76ZM90.93,488.76l-34.25-.27c-1.67-.1-2.84-.72-3.5-1.86-.66-1.14-.96-2.19-.91-3.16.05-1.09.5-2.03,1.35-2.83.85-.8,1.86-1.27,3.02-1.43,11.35.18,22.77.39,34.25.65,1.6.08,2.87.47,3.82,1.18.95.71,1.43,1.85,1.43,3.42,0,2.84-1.74,4.27-5.21,4.3ZM61.85,520.5c-1.19,0-2.19-.47-3-1.41-.81-.94-1.24-2.14-1.29-3.61.03-3.93.59-9.66,1.69-17.18,1.1-7.53,2.48-16.61,4.12-27.25.18-1.17.68-2.17,1.52-3.02.84-.85,1.9-1.27,3.19-1.27,1.11,0,2.12.36,3.02,1.08.9.72,1.35,1.74,1.35,3.06-.38,3.65-1.13,9.09-2.24,16.33-1.12,7.24-2.43,16.99-3.95,29.25-.18,1.39-.65,2.41-1.43,3.06-.77.65-1.77.97-2.98.97ZM82.03,516.43c-.28,1.62-.86,2.74-1.73,3.36-.87.62-1.92.84-3.14.67-1.57-.25-2.62-.92-3.16-2.01-.53-1.09-.75-2.26-.65-3.5.35-3.95,1.18-9.76,2.49-17.41,1.31-7.65,2.6-15.72,3.9-24.21.25-1.88.72-3.43,1.41-4.68.68-1.24,1.71-1.89,3.08-1.94,1.52.03,2.67.48,3.46,1.37.79.89,1.11,1.79.99,2.7l-6.65,45.65Z"/>
    <path class="cls-1" d="M106.85,520.46c-.96,0-1.91-.22-2.85-.65-.94-.43-1.72-1.2-2.34-2.3-.62-1.1-.93-2.64-.93-4.62v-13.76c0-2.91-.06-7.12-.19-12.62-.13-5.5-.04-10.92.27-16.27.23-2.18.92-3.8,2.07-4.87,1.15-1.06,2.53-1.6,4.12-1.6s2.87.32,3.74.97c.87.65,1.48,1.45,1.82,2.41.34.96.53,1.95.55,2.96.2,6.26.23,12.44.08,18.55-.15,6.11-.23,10.76-.23,13.95v10.26c0,1.9-.28,3.4-.84,4.5-.56,1.1-1.31,1.89-2.24,2.36s-1.95.7-3.04.7Z"/>
    <path class="cls-1" d="M156.33,501.91c-.03,4.61-1.03,8.33-3,11.16-1.98,2.83-4.57,4.86-7.79,6.1-3.22,1.24-6.69,1.79-10.42,1.63-3.42-.13-6.37-.66-8.86-1.6-2.48-.94-4.23-2.19-5.25-3.74-1.01-1.56-1.04-3.35-.08-5.38.99-1.6,2.47-2.36,4.45-2.28,1.98.08,4.03.44,6.16,1.1,3.17.86,6.02.77,8.55-.27,2.53-1.04,4.05-3.24,4.56-6.61.3-1.57.11-3.24-.59-5-.7-1.76-2.3-3.01-4.81-3.74-2.51-.73-6.32-.34-11.44,1.18-1.93.51-3.43.43-4.5-.23-1.08-.66-1.84-1.64-2.28-2.95-.44-1.31-.68-2.67-.7-4.09-.05-8.67.01-14.19.19-16.57,0-2.74.58-4.57,1.75-5.49,1.17-.92,3.43-1.41,6.8-1.46,5.85,0,12.57.06,20.15.19,4.08.2,6.07,2.01,5.97,5.44-.03,1.52-.54,2.67-1.54,3.46-1,.79-2.65,1.23-4.96,1.33-2.41.15-5.33.23-8.76.25-3.43.01-6.49.02-9.18.02-.13,4.38-.13,7.87,0,10.45,5.8-1.01,10.43-1,13.88.04,3.45,1.04,6.01,2.63,7.7,4.77,1.69,2.14,2.79,4.36,3.31,6.65.52,2.29.75,4.18.7,5.65Z"/>
    <path class="cls-1" d="M203.86,504.07c-.23,5.45-2.19,9.55-5.89,12.32-3.7,2.76-8.63,4.18-14.79,4.26-5.37.03-9.7-.69-12.98-2.15-3.28-1.46-5.68-3.4-7.18-5.82-1.51-2.42-2.29-5.07-2.34-7.96-.03-3.78.96-6.96,2.96-9.54s4.32-4.24,6.96-4.98c-2.2-.86-4.02-2.34-5.44-4.43-1.42-2.09-2.09-4.61-2.01-7.55.23-4.26,2.07-7.87,5.51-10.85,3.45-2.98,8.17-4.48,14.18-4.5,6.06.15,10.66,1.53,13.82,4.14,3.15,2.61,4.91,6.15,5.26,10.61.23,2.81-.21,5.26-1.31,7.36-1.1,2.09-2.67,3.66-4.69,4.69,2.33.63,4.24,2.32,5.74,5.06,1.5,2.74,2.23,5.85,2.2,9.35ZM183.41,511.41c3.42-.33,5.65-1.23,6.67-2.7s1.48-3.07,1.35-4.79c.02-1.52-.27-2.92-.87-4.2-.61-1.28-1.58-2.31-2.91-3.1-1.33-.79-3.09-1.18-5.26-1.18-1.5,0-2.93.26-4.31.78-1.38.52-2.49,1.4-3.33,2.64-.84,1.24-1.25,2.96-1.25,5.17.05,2.43.91,4.33,2.57,5.68,1.66,1.36,4.11,1.92,7.36,1.69ZM182.42,485.26c2.91,0,5.07-.58,6.48-1.75,1.41-1.17,2.12-2.85,2.15-5.06,0-2.13-.72-3.83-2.15-5.09-1.43-1.27-3.57-1.86-6.41-1.79-2.61.1-4.62.79-6.04,2.05-1.42,1.27-2.08,3.12-1.98,5.55.02.96.3,1.91.84,2.83.53.93,1.37,1.7,2.51,2.32,1.14.62,2.67.93,4.6.93Z"/>
    <path class="cls-1" d="M231.03,520.72c-7.12-.05-12.58-2.55-16.38-7.51-3.8-4.95-5.85-11.7-6.16-20.24-.15-5.55.67-10.51,2.45-14.88,1.79-4.37,4.42-7.82,7.91-10.36,3.48-2.53,7.67-3.84,12.56-3.92,7.45.1,13.06,2.67,16.82,7.7,3.76,5.03,5.66,11.78,5.68,20.24.08,5.3-.53,10.11-1.81,14.44-1.28,4.33-3.59,7.81-6.92,10.43-3.33,2.62-8.05,3.98-14.16,4.09ZM231.98,509.36c3.83-.02,6.47-1.47,7.93-4.33,1.46-2.86,2.12-6.93,2-12.2-.13-5.47-1.08-9.67-2.85-12.58-1.77-2.91-4.23-4.42-7.37-4.52-2.94-.13-5.42,1.2-7.43,3.97s-3.06,7.28-3.14,13.51c.05,4.69.99,8.53,2.83,11.52,1.84,2.99,4.52,4.54,8.04,4.64Z"/>
    <path class="cls-1" d="M264.24,519.77c-2.81-.61-4.68-1.53-5.59-2.77-.91-1.24-1.22-2.71-.91-4.41.23-1.55.98-2.68,2.26-3.4,1.28-.72,2.95-.88,5-.48,4.13.74,7.31.74,9.54,0,1.8-.71,2.91-2.07,3.33-4.07.42-2-.07-3.9-1.46-5.68-1.39-1.79-3.93-2.69-7.6-2.72-4.97.03-7.41-1.65-7.34-5.02.18-3.12,2.22-4.73,6.12-4.83,2.48-.1,4.43-.72,5.85-1.86,1.42-1.14,2.31-2.57,2.66-4.3.35-2.38-.28-4.16-1.9-5.32-1.62-1.17-4.69-1.2-9.2-.11-1.82.53-3.4.63-4.73.29-1.33-.34-2.26-1.26-2.79-2.76-.53-1.82-.34-3.38.59-4.66.92-1.28,2.39-2.21,4.39-2.79,6.28-1.72,11.32-1.98,15.11-.78,3.79,1.2,6.5,3.22,8.13,6.04,1.63,2.83,2.36,5.81,2.19,8.95-.05,2.36-.65,4.63-1.79,6.82-1.14,2.19-3.03,4.05-5.66,5.57,3.5,1.14,5.99,3.12,7.49,5.95,1.5,2.83,2.05,6.24,1.67,10.24-.61,4.74-3.17,8.27-7.7,10.61-4.52,2.33-10.41,2.83-17.66,1.48Z"/>
    <path class="cls-1" d="M333.97,509.7c.05,3.29-.32,5.79-1.12,7.49-.8,1.7-2.35,2.62-4.66,2.77-1.85.08-3.24-.26-4.16-1.01-.93-.75-1.55-1.7-1.88-2.87-1.04,1.93-2.82,3.23-5.34,3.9-2.52.67-5.16.89-7.93.67-2.94-.3-5.53-1.38-7.77-3.23-2.24-1.85-4-4.18-5.27-6.99s-1.91-5.82-1.94-9.01c.08-5.02,1.06-9.08,2.95-12.18,1.89-3.1,4.3-5.38,7.22-6.84,2.93-1.46,5.97-2.19,9.14-2.19s6.07.61,8.7,1.82c.02-6.21.46-10.79,1.31-13.74.85-2.95,2.68-4.38,5.49-4.28,1.65-.02,2.95.64,3.9,2,.95,1.36,1.5,3.85,1.65,7.47-.08,10.09-.18,22.16-.3,36.23ZM320.97,507.15c-.05-3.65-.1-8.53-.15-14.63-3.02-1.42-5.64-1.92-7.87-1.5-2.23.42-3.98,1.45-5.25,3.1-1.27,1.65-1.94,3.59-2.01,5.82-.08,4.41,1.29,7.35,4.09,8.82,2.8,1.47,6.53.94,11.19-1.6Z"/>
  </g>
  <g>
    <path class="cls-1" d="M54.55,817.78c-1.42-.03-2.67-.42-3.74-1.2-1.08-.77-1.64-1.86-1.69-3.25-.03-1.04.3-1.98.99-2.81s1.76-1.3,3.23-1.41c2.64-.13,8.55-.34,17.75-.63s15.21-.41,18.02-.36c1.24,0,2.32.3,3.23.91s1.44,1.76,1.6,3.46c.08,1.62-.39,2.77-1.39,3.44-1,.67-2.24,1.03-3.71,1.08-12.65.66-24.08.91-34.29.76ZM90.93,800.07l-34.25-.27c-1.67-.1-2.84-.72-3.5-1.86-.66-1.14-.96-2.19-.91-3.16.05-1.09.5-2.03,1.35-2.83.85-.8,1.86-1.27,3.02-1.43,11.35.18,22.77.39,34.25.65,1.6.08,2.87.47,3.82,1.18.95.71,1.43,1.85,1.43,3.42,0,2.84-1.74,4.27-5.21,4.29ZM61.85,831.81c-1.19,0-2.19-.47-3-1.41s-1.24-2.14-1.29-3.61c.03-3.93.59-9.66,1.69-17.18,1.1-7.53,2.48-16.61,4.12-27.25.18-1.17.68-2.17,1.52-3.02.84-.85,1.9-1.27,3.19-1.27,1.11,0,2.12.36,3.02,1.08.9.72,1.35,1.74,1.35,3.06-.38,3.65-1.13,9.09-2.24,16.33-1.12,7.23-2.43,16.98-3.95,29.25-.18,1.39-.65,2.41-1.43,3.06-.77.65-1.77.97-2.98.97ZM82.03,827.74c-.28,1.62-.86,2.74-1.73,3.36-.87.62-1.92.84-3.14.67-1.57-.25-2.62-.92-3.16-2.01-.53-1.09-.75-2.26-.65-3.5.35-3.95,1.18-9.76,2.49-17.41,1.31-7.65,2.6-15.72,3.9-24.21.25-1.88.72-3.43,1.41-4.68.68-1.24,1.71-1.89,3.08-1.94,1.52.03,2.67.48,3.46,1.37.79.89,1.11,1.79.99,2.7l-6.65,45.65Z"/>
    <path class="cls-1" d="M114.9,826.29c-1.22,2.46-2.64,4.07-4.28,4.85-1.63.77-3.33.72-5.07-.17-1.39-.68-2.22-1.79-2.49-3.33-.27-1.53.16-3.68,1.27-6.44.81-1.95,2.27-5.58,4.39-10.89,2.12-5.31,4.94-12.85,8.46-22.64-3.65,0-7.05.03-10.21.1-3.16.06-5.33.09-6.52.09-1.9-.05-3.53-.63-4.88-1.73-1.36-1.1-1.98-2.67-1.88-4.7.2-2.23,1.12-3.81,2.76-4.73,1.63-.92,3.97-1.4,7.01-1.42,7.37-.18,14.01-.18,19.92,0,2.53.2,4.31.96,5.34,2.28,1.03,1.32,1.5,2.98,1.43,5-.08,2.01-.52,4.15-1.33,6.41-.76,2.18-2.9,8.08-6.41,17.71-3.51,9.63-6.01,16.17-7.51,19.62Z"/>
    <path class="cls-1" d="M168.75,817.82l-5.17.3c.1,3.12.16,5.2.19,6.23,0,2.28-.41,4-1.24,5.17-.82,1.17-2.24,1.74-4.24,1.71-1.67-.05-2.93-.68-3.78-1.88-.85-1.2-1.26-2.63-1.24-4.28.08-1.34.05-3.74-.08-7.18-7.91.08-13.14.03-15.7-.15-2.15-.13-3.97-.75-5.46-1.86-1.48-1.11-2.34-2.65-2.57-4.6-.18-1.75-.06-3.39.34-4.92.41-1.53,1.36-3.45,2.85-5.76,1.5-2.3,3.76-5.5,6.8-9.58,3.65-4.59,7.11-8.34,10.4-11.27,3.28-2.93,5.89-4.44,7.81-4.54,1.77-.02,3.19.6,4.26,1.86,1.06,1.27,1.61,3.32,1.63,6.16-.05,4.94-.04,9.02.02,12.24.06,3.22.04,7.12-.06,11.71l5.32-.04c1.82.08,3.16.61,4.01,1.6.85.99,1.29,2.18,1.31,3.57-.03,1.88-.55,3.25-1.56,4.12-1.01.87-2.31,1.34-3.88,1.39ZM152.94,806.98c.1-4.08.19-7.58.27-10.49.08-2.91-.05-5.41-.38-7.49-.05-.13-.27-.04-.65.27-.38.3-.88.77-1.5,1.41-.62.63-1.31,1.38-2.07,2.24s-1.56,1.79-2.4,2.79c-.84,1-1.66,2.01-2.47,3.02s-1.56,1.99-2.24,2.93c-.68.94-1.27,1.79-1.77,2.55-.49.76-.84,1.38-1.05,1.84-.2.47-.22.75-.04.86.81.36,2.55.52,5.23.49,2.67-.03,5.7-.16,9.07-.42Z"/>
    <path class="cls-1" d="M208.35,798.93c-.99,2.81-3.02,3.99-6.08,3.54-3.55-.63-6.25-.43-8.1.61-1.85,1.04-3.08,2.48-3.69,4.31-.61,1.84-.8,3.66-.57,5.45.15,1.7.71,3.27,1.67,4.71.96,1.44,2.36,2.49,4.18,3.14,1.82.65,4.09.6,6.8-.13,1.82-.48,3.32-.37,4.49.34,1.17.71,1.89,1.89,2.17,3.54.58,3.12-1.06,5.31-4.94,6.58-4.08,1.32-8.15,1.59-12.2.82-4.05-.77-7.5-2.66-10.34-5.66-2.84-3-4.47-7.19-4.9-12.56-.28-4.74.32-8.65,1.79-11.73,1.47-3.08,3.5-5.45,6.1-7.11s5.44-2.73,8.52-3.21c3.08-.48,6.08-.49,8.99-.04,2.46.43,4.21,1.32,5.26,2.68,1.05,1.36,1.34,2.93.86,4.73Z"/>
    <path class="cls-1" d="M241.47,831.01c-6.08,0-13.19.14-21.33.42-2.66.08-4.63-.49-5.91-1.71-1.28-1.22-1.88-2.85-1.81-4.9.1-2.26,1.08-4.55,2.93-6.9,1.85-2.34,4.19-4.87,7.03-7.58,4.26-4.18,7.41-7.77,9.45-10.76,2.04-2.99,2.7-5.9,2-8.74-.28-1.9-1.09-3.15-2.43-3.74-1.34-.59-2.86-.79-4.54-.57-1.69.22-3.16.58-4.43,1.08-1.88.79-3.61,1.22-5.21,1.31-1.6.09-2.81-.36-3.65-1.35-1.12-1.75-1.3-3.55-.55-5.4s2.41-3.56,5-5.13c1.8-1.04,3.93-1.77,6.39-2.19,2.46-.42,4.87-.55,7.22-.4,3.47.25,6.3,1.29,8.5,3.12,2.19,1.82,3.76,4.12,4.71,6.9.95,2.77,1.31,5.73,1.08,8.88-.38,3.65-1.65,7.18-3.82,10.61-2.17,3.42-4.66,6.54-7.49,9.37s-5.4,5.19-7.74,7.09l16.27-.42c1.62,0,2.95.5,3.97,1.5,1.03,1,1.53,2.43,1.5,4.28.02,1.55-.45,2.79-1.43,3.74s-2.88,1.45-5.72,1.5Z"/>
    <path class="cls-1" d="M274.52,775.32c2.56-.63,4.64-.72,6.25-.25,1.61.47,2.77,1.6,3.48,3.4.71,2.1.49,3.71-.67,4.81-1.15,1.1-2.71,2.01-4.66,2.72-.99.38-2.36,1.06-4.12,2.03-1.76.98-3.52,2.31-5.28,4.01-1.76,1.7-3.15,3.79-4.16,6.27,5.52-1.47,10.18-1.51,13.97-.13,3.79,1.38,6.65,3.61,8.57,6.69,1.93,3.08,2.86,6.46,2.81,10.13-.03,2.28-.57,4.64-1.63,7.07-1.06,2.43-2.85,4.55-5.36,6.35s-5.96,2.93-10.34,3.38c-3.62.38-7.12-.1-10.49-1.43-3.37-1.33-6.16-3.73-8.38-7.2-2.22-3.47-3.42-8.25-3.59-14.33,0-5.93,1.19-11.26,3.57-16,2.38-4.74,5.39-8.63,9.03-11.67,3.64-3.04,7.3-4.99,11-5.85ZM263.11,807.02c-.61,5.07.02,8.83,1.9,11.29,1.88,2.46,4.55,3.48,8.02,3.08,2.58-.43,4.36-1.34,5.32-2.72.96-1.38,1.41-2.54,1.33-3.48.08-2.61-.49-4.8-1.69-6.56-1.2-1.76-3.05-2.84-5.53-3.23-2.48-.39-5.6.15-9.35,1.62Z"/>
    <path class="cls-1" d="M322.45,831.01c-6.08,0-13.19.14-21.33.42-2.66.08-4.63-.49-5.91-1.71-1.28-1.22-1.88-2.85-1.81-4.9.1-2.26,1.08-4.55,2.93-6.9,1.85-2.34,4.19-4.87,7.03-7.58,4.26-4.18,7.41-7.77,9.45-10.76,2.04-2.99,2.7-5.9,2-8.74-.28-1.9-1.09-3.15-2.43-3.74-1.34-.59-2.86-.79-4.54-.57-1.69.22-3.16.58-4.43,1.08-1.88.79-3.61,1.22-5.21,1.31-1.6.09-2.81-.36-3.65-1.35-1.12-1.75-1.3-3.55-.55-5.4s2.41-3.56,5-5.13c1.8-1.04,3.93-1.77,6.39-2.19,2.46-.42,4.87-.55,7.22-.4,3.47.25,6.3,1.29,8.5,3.12,2.19,1.82,3.76,4.12,4.71,6.9.95,2.77,1.31,5.73,1.08,8.88-.38,3.65-1.65,7.18-3.82,10.61-2.17,3.42-4.66,6.54-7.49,9.37s-5.4,5.19-7.74,7.09l16.27-.42c1.62,0,2.95.5,3.97,1.5,1.03,1,1.53,2.43,1.5,4.28.02,1.55-.45,2.79-1.43,3.74s-2.88,1.45-5.72,1.5Z"/>
  </g>
  <g>
    <path class="cls-3" d="M54.55,1040.38c-1.42-.03-2.67-.42-3.74-1.2-1.08-.77-1.64-1.86-1.69-3.25-.03-1.04.3-1.98.99-2.81s1.76-1.3,3.23-1.41c2.64-.13,8.55-.34,17.75-.63s15.21-.41,18.02-.36c1.24,0,2.32.3,3.23.91s1.44,1.76,1.6,3.46c.08,1.62-.39,2.77-1.39,3.44-1,.67-2.24,1.03-3.71,1.08-12.65.66-24.08.91-34.29.76ZM90.93,1022.66l-34.25-.27c-1.67-.1-2.84-.72-3.5-1.86-.66-1.14-.96-2.19-.91-3.16.05-1.09.5-2.03,1.35-2.83.85-.8,1.86-1.27,3.02-1.43,11.35.18,22.77.39,34.25.65,1.6.08,2.87.47,3.82,1.18.95.71,1.43,1.85,1.43,3.42,0,2.84-1.74,4.27-5.21,4.29ZM61.85,1054.4c-1.19,0-2.19-.47-3-1.41s-1.24-2.14-1.29-3.61c.03-3.93.59-9.66,1.69-17.18,1.1-7.53,2.48-16.61,4.12-27.25.18-1.17.68-2.17,1.52-3.02.84-.85,1.9-1.27,3.19-1.27,1.11,0,2.12.36,3.02,1.08.9.72,1.35,1.74,1.35,3.06-.38,3.65-1.13,9.09-2.24,16.33-1.12,7.23-2.43,16.98-3.95,29.25-.18,1.39-.65,2.41-1.43,3.06-.77.65-1.77.97-2.98.97ZM82.03,1050.34c-.28,1.62-.86,2.74-1.73,3.36-.87.62-1.92.84-3.14.67-1.57-.25-2.62-.92-3.16-2.01-.53-1.09-.75-2.26-.65-3.5.35-3.95,1.18-9.76,2.49-17.41,1.31-7.65,2.6-15.72,3.9-24.21.25-1.88.72-3.43,1.41-4.68.68-1.24,1.71-1.89,3.08-1.94,1.52.03,2.67.48,3.46,1.37.79.89,1.11,1.79.99,2.7l-6.65,45.65Z"/>
    <path class="cls-3" d="M118.6,1025.48c.23,7.1.37,12.13.42,15.11.05,2.98.01,5.49-.11,7.55-.08,1.82-.64,3.27-1.69,4.33-1.05,1.06-2.45,1.62-4.2,1.67-2.03,0-3.51-.67-4.45-2s-1.41-3.05-1.41-5.15l-.11-21.52c-3.12.08-5.28-.31-6.48-1.16-1.2-.85-1.79-2.11-1.77-3.78-.08-1.8.48-3.13,1.67-3.99,1.19-.86,3.4-1.34,6.61-1.44-.13-1.34-.05-3.28.23-5.82.79-5.8,3.41-9.41,7.87-10.83,2.46-.76,4.95-1.03,7.47-.82,2.52.21,4.9,1.04,7.13,2.49,1.52,1.19,2.48,2.45,2.87,3.76.39,1.32.12,2.48-.82,3.5-1.12.79-2.05,1.03-2.81.74-.76-.29-1.64-.58-2.64-.87-1-.29-2.43-.07-4.28.67-1.77.68-2.85,1.76-3.21,3.23s-.46,2.88-.28,4.22c6.08-.2,9.08,1.38,9.01,4.75.02,1.93-.69,3.31-2.15,4.14-1.46.84-3.74,1.24-6.86,1.22Z"/>
    <path class="cls-3" d="M150.25,1025.48c.23,7.1.37,12.13.42,15.11.05,2.98.01,5.49-.11,7.55-.08,1.82-.64,3.27-1.69,4.33-1.05,1.06-2.45,1.62-4.2,1.67-2.03,0-3.51-.67-4.45-2s-1.41-3.05-1.41-5.15l-.11-21.52c-3.12.08-5.28-.31-6.48-1.16-1.2-.85-1.79-2.11-1.77-3.78-.08-1.8.48-3.13,1.67-3.99,1.19-.86,3.4-1.34,6.61-1.44-.13-1.34-.05-3.28.23-5.82.79-5.8,3.41-9.41,7.87-10.83,2.46-.76,4.95-1.03,7.47-.82,2.52.21,4.9,1.04,7.13,2.49,1.52,1.19,2.48,2.45,2.87,3.76.39,1.32.12,2.48-.82,3.5-1.12.79-2.05,1.03-2.81.74-.76-.29-1.64-.58-2.64-.87-1-.29-2.43-.07-4.28.67-1.77.68-2.85,1.76-3.21,3.23s-.46,2.88-.28,4.22c6.08-.2,9.08,1.38,9.01,4.75.02,1.93-.69,3.31-2.15,4.14-1.46.84-3.74,1.24-6.86,1.22Z"/>
    <path class="cls-3" d="M181.91,1025.48c.23,7.1.37,12.13.42,15.11.05,2.98.01,5.49-.11,7.55-.08,1.82-.64,3.27-1.69,4.33-1.05,1.06-2.45,1.62-4.2,1.67-2.03,0-3.51-.67-4.45-2s-1.41-3.05-1.41-5.15l-.11-21.52c-3.12.08-5.28-.31-6.48-1.16-1.2-.85-1.79-2.11-1.77-3.78-.08-1.8.48-3.13,1.67-3.99,1.19-.86,3.4-1.34,6.61-1.44-.13-1.34-.05-3.28.23-5.82.79-5.8,3.41-9.41,7.87-10.83,2.46-.76,4.95-1.03,7.47-.82,2.52.21,4.9,1.04,7.13,2.49,1.52,1.19,2.48,2.45,2.87,3.76.39,1.32.12,2.48-.82,3.5-1.12.79-2.05,1.03-2.81.74-.76-.29-1.64-.58-2.64-.87-1-.29-2.43-.07-4.28.67-1.77.68-2.85,1.76-3.21,3.23s-.46,2.88-.28,4.22c6.08-.2,9.08,1.38,9.01,4.75.02,1.93-.69,3.31-2.15,4.14-1.46.84-3.74,1.24-6.86,1.22Z"/>
    <path class="cls-3" d="M213.57,1025.48c.23,7.1.37,12.13.42,15.11.05,2.98.01,5.49-.11,7.55-.08,1.82-.64,3.27-1.69,4.33-1.05,1.06-2.45,1.62-4.2,1.67-2.03,0-3.51-.67-4.45-2s-1.41-3.05-1.41-5.15l-.11-21.52c-3.12.08-5.28-.31-6.48-1.16-1.2-.85-1.79-2.11-1.77-3.78-.08-1.8.48-3.13,1.67-3.99,1.19-.86,3.4-1.34,6.61-1.44-.13-1.34-.05-3.28.23-5.82.79-5.8,3.41-9.41,7.87-10.83,2.46-.76,4.95-1.03,7.47-.82,2.52.21,4.9,1.04,7.13,2.49,1.52,1.19,2.48,2.45,2.87,3.76.39,1.32.12,2.48-.82,3.5-1.12.79-2.05,1.03-2.81.74-.76-.29-1.64-.58-2.64-.87-1-.29-2.43-.07-4.28.67-1.77.68-2.85,1.76-3.21,3.23s-.46,2.88-.28,4.22c6.08-.2,9.08,1.38,9.01,4.75.02,1.93-.69,3.31-2.15,4.14-1.46.84-3.74,1.24-6.86,1.22Z"/>
    <path class="cls-3" d="M245.23,1025.48c.23,7.1.37,12.13.42,15.11.05,2.98.01,5.49-.11,7.55-.08,1.82-.64,3.27-1.69,4.33-1.05,1.06-2.45,1.62-4.2,1.67-2.03,0-3.51-.67-4.45-2s-1.41-3.05-1.41-5.15l-.11-21.52c-3.12.08-5.28-.31-6.48-1.16-1.2-.85-1.79-2.11-1.77-3.78-.08-1.8.48-3.13,1.67-3.99,1.19-.86,3.4-1.34,6.61-1.44-.13-1.34-.05-3.28.23-5.82.79-5.8,3.41-9.41,7.87-10.83,2.46-.76,4.95-1.03,7.47-.82,2.52.21,4.9,1.04,7.13,2.49,1.52,1.19,2.48,2.45,2.87,3.76.39,1.32.12,2.48-.82,3.5-1.12.79-2.05,1.03-2.81.74-.76-.29-1.64-.58-2.64-.87-1-.29-2.43-.07-4.28.67-1.77.68-2.85,1.76-3.21,3.23s-.46,2.88-.28,4.22c6.08-.2,9.08,1.38,9.01,4.75.02,1.93-.69,3.31-2.15,4.14-1.46.84-3.74,1.24-6.86,1.22Z"/>
    <path class="cls-3" d="M276.99,1026.24c.2,6.79.34,11.68.42,14.65.08,2.98.04,5.43-.11,7.36-.18,1.82-.81,3.26-1.9,4.29-1.09,1.04-2.5,1.57-4.22,1.6-1.9-.03-3.38-.72-4.43-2.07-1.05-1.36-1.58-3.17-1.58-5.46l-.27-20.38c-2.91.1-4.96-.29-6.12-1.18-1.17-.89-1.75-2.18-1.75-3.88-.1-1.7.42-2.98,1.56-3.86,1.14-.87,3.26-1.4,6.35-1.58-.08-5.3.61-9.35,2.05-12.15,1.44-2.8,4.23-4.71,8.36-5.72,2.26-.53,4.54-.64,6.84-.32,2.31.32,4.14,1.08,5.49,2.28,1.35,1.2,1.74,2.91,1.16,5.11-.28,1.12-.97,1.83-2.07,2.15-1.1.32-2.45.34-4.05.06-1.57-.43-3.03-.1-4.37.99-.91.91-1.43,2.12-1.56,3.61-.13,1.5-.14,2.92-.04,4.26,3.88-.1,6.65.21,8.31.95,1.66.74,2.48,1.99,2.45,3.76.05,2.08-.74,3.53-2.36,4.35-1.62.82-4.35,1.21-8.17,1.16Z"/>
  </g>
</svg>