<?xml version="1.0" encoding="UTF-8"?>
<svg id="Layer_1" data-name="Layer 1" xmlns="http://www.w3.org/2000/svg" viewBox="0 0 1080 1080">
  <defs>
    <style>
      .cls-1 {
        fill: #fff;
      }
    </style>
  </defs>
  <path class="cls-1" d="M710.33,431.67c1.71,10.45,3.28,20.91,4.71,31.4-.41-3.05-.82-6.11-1.23-9.16,8.84,65.83,12.05,133.29,3.2,199.31l1.23-9.16c-3.21,23.6-7.53,47.25-16.61,69.38,1.16-2.74,2.32-5.49,3.47-8.23-4.27,10.11-9.52,19.68-16.22,28.39,1.8-2.32,3.59-4.65,5.39-6.97-4.64,5.84-9.8,11.09-15.64,15.73,2.32-1.8,4.65-3.59,6.97-5.39-5.11,3.92-10.5,7.17-16.42,9.7,2.74-1.16,5.49-2.32,8.23-3.47-5.38,2.14-10.86,3.6-16.6,4.4,3.05-.41,6.11-.82,9.16-1.23-6.13.71-12.19.64-18.31-.12,3.05.41,6.11.82,9.16,1.23-7.2-1.05-14.11-3.01-20.85-5.74,2.74,1.16,5.49,2.32,8.23,3.47-8.32-3.54-16.05-8.11-23.25-13.56,2.32,1.8,4.65,3.59,6.97,5.39-9.16-7.13-16.82-15.49-23.91-24.64,1.8,2.32,3.59,4.65,5.39,6.97-14.64-19.37-24.87-41.19-34.31-63.43,1.16,2.74,2.32,5.49,3.47,8.23-21.64-51.3-39.12-104.2-59.71-155.9-18.23-45.77-37.98-94.24-82.36-120.78-25.03-14.97-57.21-18.78-84.88-9.12-28.8,10.05-50.84,30.14-67.3,55.49-13.93,21.45-22.69,46.62-28.82,71.33-6.98,28.12-11.16,57-14.27,85.78-6.84,63.4-4.9,127.44,2.34,190.71,1.08,9.43,3.13,17.4,10.09,24.36,5.98,5.98,15.78,10.48,24.36,10.09,8.91-.4,18.15-3.33,24.36-10.09,5.77-6.29,11.11-15.48,10.09-24.36-7.92-69.17-9.38-139.2-.21-208.33-.41,3.05-.82,6.11-1.23,9.16,4.51-33.21,10.54-67.06,23.63-98.1-1.16,2.74-2.32,5.49-3.47,8.23,4.95-11.44,10.94-22.32,18.47-32.28-1.8,2.32-3.59,4.65-5.39,6.97,5.53-7.11,11.72-13.68,18.78-19.3-2.32,1.8-4.65,3.59-6.97,5.39,5.67-4.33,11.75-7.87,18.32-10.65-2.74,1.16-5.49,2.32-8.23,3.47,6-2.39,12.14-4.04,18.54-4.93-3.05.41-6.11.82-9.16,1.23,5.85-.68,11.64-.7,17.5-.01-3.05-.41-6.11-.82-9.16-1.23,5.94.84,11.62,2.37,17.18,4.63-2.74-1.16-5.49-2.32-8.23-3.47,6.45,2.81,12.36,6.5,17.96,10.73-2.32-1.8-4.65-3.59-6.97-5.39,7.78,6.08,14.56,13.15,20.61,20.94-1.8-2.32-3.59-4.65-5.39-6.97,11.83,15.61,20.38,33.27,27.99,51.24-1.16-2.74-2.32-5.49-3.47-8.23,21.14,50.32,38.29,102.19,58.42,152.91,20.97,52.86,44.22,111.56,96.13,141.44,25.45,14.65,55.85,20.74,84.62,13.49,28.33-7.14,51.14-27.47,66.81-51.44,12.6-19.27,20.34-42.14,25.28-64.51,5.66-25.6,8.73-51.95,10.56-78.08,4.8-68.65-1.52-137.46-12.59-205.23-1.31-8-9.13-16.67-15.83-20.59-7.39-4.32-18.27-6.15-26.55-3.47-8.34,2.7-16.38,7.86-20.59,15.83-4.58,8.68-5.05,16.91-3.47,26.55h0Z"/>
  <path class="cls-1" d="M371.87,338.91c21.69,0,42.47-19.07,41.47-41.47-1.01-22.47-18.22-41.47-41.47-41.47-21.69,0-42.47,19.07-41.47,41.47,1.01,22.47,18.22,41.47,41.47,41.47h0Z"/>
  <path class="cls-1" d="M722.54,338.91c21.69,0,42.47-19.07,41.47-41.47-1.01-22.47-18.22-41.47-41.47-41.47-21.69,0-42.47,19.07-41.47,41.47,1.01,22.47,18.22,41.47,41.47,41.47h0Z"/>
</svg>