<?xml version="1.0" encoding="UTF-8"?>
<svg id="Layer_1" data-name="Layer 1" xmlns="http://www.w3.org/2000/svg" viewBox="0 0 2338.54 1080">
  <defs>
    <style>
      .cls-1 {
        fill: #74c262;
      }

      .cls-2 {
        fill: #15803d;
      }
    </style>
  </defs>
  <rect class="cls-1" x="0" width="2338.54" height="1080"/>
  <g>
    <g>
      <path class="cls-2" d="M1024.44,554.48c.5,20.46-6.67,30.9-21.52,31.3-9.83-.4-16.4-3.96-19.71-10.68-3.31-6.72-4.97-13.79-4.97-21.22-1-22.17-1.33-48.53-.98-79.07.35-30.54.58-57.95.68-82.23.3-8.22,2.73-14.87,7.3-19.94,4.56-5.06,10.08-8,16.55-8.8,6.47-.8,12.71,1.15,18.73,5.87,9.93,8.83,20.44,22.49,31.52,41,11.08,18.51,21.97,38.12,32.65,58.83,10.68,20.72,20.39,38.75,29.11,54.09-1.71-58.08-2.51-102.32-2.41-132.71.2-8.93,2-15.77,5.42-20.54,3.41-4.76,9.13-6.95,17.15-6.55,7.12.1,12.34,3.08,15.65,8.95,3.31,5.87,5.27,16.38,5.87,31.52.7,19.16.95,43.81.75,73.95-.2,30.14-.55,52.54-1.05,67.18-1,16.45-4.51,27.56-10.53,33.33-6.02,5.77-12.79,7.82-20.31,6.17-7.52-1.66-13.94-5.34-19.26-11.06-8.12-9.23-20.56-27.96-37.32-56.2-16.75-28.24-32.25-56.1-46.49-83.58l3.16,120.37Z"/>
      <path class="cls-2" d="M1322.51,591.05c-7.42,0-12.54-2.28-15.35-6.85-2.81-4.56-3.96-10.01-3.46-16.33-5.42,8.03-13.04,13.84-22.87,17.45-9.83,3.61-20.46,5.06-31.9,4.36-7.82-.3-16.1-2.71-24.83-7.22-8.73-4.51-16.4-11.81-23.02-21.89-6.62-10.08-10.58-23.6-11.89-40.55-1.1-18.96.75-34.63,5.57-47.02,4.81-12.39,11.66-21.87,20.54-28.44,8.88-6.57,18.73-10.61,29.57-12.11,14.75-1.9,26.98-1.13,36.71,2.33,9.73,3.46,17.2,7.8,22.42,13.02.6-3.41,2.36-6.82,5.27-10.23,2.91-3.41,7.52-5.17,13.84-5.27,7.22.3,12.16,3.66,14.82,10.08,2.66,6.42,3.99,15.05,3.99,25.88.3,25.98-.05,54.42-1.05,85.31-.5,14.85-1.96,24.85-4.36,30.02-2.41,5.17-7.07,7.65-13.99,7.45ZM1299.34,531.91c2.01-7.12,2.76-15.55,2.26-25.28-.5-9.73-.95-17.05-1.35-21.97-4.81-6.82-11.26-11.83-19.33-15.05-8.08-3.21-16.25-3.96-24.53-2.26-8.28,1.71-15.1,6.42-20.46,14.14-5.37,7.73-7.8,19.11-7.3,34.16.9,11.24,4.31,19.99,10.23,26.26,5.92,6.27,12.91,10.08,20.99,11.44,8.07,1.35,15.77.25,23.1-3.31,7.32-3.56,12.79-9.6,16.4-18.13Z"/>
      <path class="cls-2" d="M1400.3,585.63c-8.53.4-14.32-2.93-17.38-10.01-3.06-7.07-4.59-19.53-4.59-37.39-.2-17.55-.13-39.27.23-65.15.35-25.88.53-51.86.53-77.94-.2-9.53,1.28-16.93,4.44-22.19,3.16-5.27,8.95-7.95,17.38-8.05,7.42.2,12.74,2.56,15.95,7.07,3.21,4.51,4.81,10.74,4.81,18.66-.2,12.64-.5,39.93-.9,81.85,25.98-30.79,43.94-50.35,53.87-58.68,6.92-5.52,13.06-8.45,18.43-8.8,5.37-.35,9.6,1.38,12.71,5.19,6.32,7.22,4.21,17.3-6.32,30.24-10.03,10.93-21.82,23.32-35.36,37.16,15.85,26.28,30.29,49.9,43.33,70.87,3.81,5.72,5.92,11.61,6.32,17.68.4,6.07-2.01,11.11-7.22,15.12-6.52,4.51-12.82,5.24-18.88,2.18-6.07-3.06-11.86-9.05-17.38-17.98-6.22-10.13-12.44-21.09-18.66-32.88-6.22-11.79-11.64-21.54-16.25-29.26-5.82,4.92-10.38,8.58-13.69,10.98.3,27.08-.63,45.84-2.78,56.27-2.16,10.43-8.35,15.45-18.58,15.05Z"/>
      <path class="cls-2" d="M1577.7,393.64c.4,13.74.6,35.51.6,65.3,4.71-9.43,11.74-16.05,21.07-19.86,9.33-3.81,18.15-5.67,26.48-5.57,13.64.1,24.42,3.44,32.35,10.01,7.92,6.57,13.64,15.32,17.15,26.26,3.51,10.93,5.42,23.12,5.72,36.56.8,19.06,1.2,35.66,1.2,49.8-.3,8.83-2.23,15.93-5.79,21.29-3.56,5.37-8.55,8.15-14.97,8.35-8.23.1-14.05-2.58-17.45-8.05-3.41-5.47-5.32-14.42-5.72-26.86-.6-9.73-1-22.12-1.2-37.16.2-5.62.02-11.64-.53-18.06-.55-6.42-2.46-11.96-5.72-16.63-3.26-4.66-8.75-7.15-16.48-7.45-7.42.1-13.9,2.68-19.41,7.75-5.52,5.07-9.83,11.26-12.94,18.58-3.11,7.32-4.57,14.4-4.36,21.22,0,11.44-.1,21.02-.3,28.74.2,13.14-1.31,22.77-4.51,28.89-3.21,6.12-8.93,9.13-17.15,9.03-8.73-.1-14.7-3.11-17.9-9.03-3.21-5.92-4.77-13.64-4.66-23.17-.7-28.08-1-79.49-.9-154.23.1-13.14,2.03-22.37,5.79-27.69,3.76-5.32,9.4-7.77,16.93-7.37,6.82.3,12.19,3.04,16.1,8.2,3.91,5.17,6.12,12.21,6.62,21.14Z"/>
      <path class="cls-2" d="M1765.18,546.81c4.71-32.4,10.56-56.12,17.53-71.17,6.97-15.05,16.07-22.37,27.31-21.97,9.03-.3,16.55,6.8,22.57,21.29,6.02,14.5,12.34,38.8,18.96,72.9,3.91-25.28,6.32-44.81,7.22-58.61.9-13.79,1.6-23.55,2.11-29.27,1-8.83,3.16-15.72,6.47-20.69,3.31-4.97,8.47-7.3,15.5-7,8.32.2,13.52,3.84,15.57,10.91,2.05,7.07,2.53,18.73,1.43,34.98-2.21,37.62-7.07,67.36-14.6,89.23-2.51,7.32-5.89,12.74-10.16,16.25-4.27,3.51-10.41,5.47-18.43,5.87-9.73.3-17.33-3.44-22.79-11.21-5.47-7.77-10.01-18.86-13.62-33.25-3.61-14.39-7.58-31.37-11.89-50.93-6.22,30.5-12.82,54.07-19.79,70.72-6.97,16.65-15.57,24.88-25.8,24.68-9.13-.5-15.95-3.49-20.46-8.95-4.51-5.47-8.03-12.66-10.53-21.59-4.92-16.15-9.01-32.12-12.26-47.92-3.26-15.8-5.59-28.91-7-39.35-1.81-11.94-1.76-21.04.15-27.31,1.9-6.27,7.17-10.21,15.8-11.81,6.52-1.1,11.69.88,15.5,5.94,3.81,5.07,6.52,12.56,8.12,22.49,2.41,15.05,6.77,43.63,13.09,85.76Z"/>
      <path class="cls-2" d="M2058.13,591.05c-7.42,0-12.54-2.28-15.35-6.85-2.81-4.56-3.96-10.01-3.46-16.33-5.42,8.03-13.04,13.84-22.87,17.45-9.83,3.61-20.46,5.06-31.9,4.36-7.82-.3-16.1-2.71-24.83-7.22-8.73-4.51-16.4-11.81-23.02-21.89-6.62-10.08-10.58-23.6-11.89-40.55-1.1-18.96.75-34.63,5.57-47.02,4.81-12.39,11.66-21.87,20.54-28.44,8.88-6.57,18.73-10.61,29.57-12.11,14.75-1.9,26.98-1.13,36.71,2.33,9.73,3.46,17.2,7.8,22.42,13.02.6-3.41,2.36-6.82,5.27-10.23,2.91-3.41,7.52-5.17,13.84-5.27,7.22.3,12.16,3.66,14.82,10.08,2.66,6.42,3.99,15.05,3.99,25.88.3,25.98-.05,54.42-1.05,85.31-.5,14.85-1.96,24.85-4.36,30.02-2.41,5.17-7.07,7.65-13.99,7.45ZM2034.96,531.91c2.01-7.12,2.76-15.55,2.26-25.28-.5-9.73-.95-17.05-1.35-21.97-4.81-6.82-11.26-11.83-19.33-15.05-8.08-3.21-16.25-3.96-24.53-2.26-8.28,1.71-15.1,6.42-20.46,14.14-5.37,7.73-7.8,19.11-7.3,34.16.9,11.24,4.31,19.99,10.23,26.26,5.92,6.27,12.91,10.08,20.99,11.44,8.07,1.35,15.77.25,23.1-3.31,7.32-3.56,12.79-9.6,16.4-18.13Z"/>
      <path class="cls-2" d="M1083.9,716.34c-.24,10.61-2.73,20.41-7.46,29.42-4.73,9.01-11.33,16.28-19.79,21.83-8.47,5.55-18.43,8.37-29.87,8.5-19.04-.06-34.12-5.88-45.24-17.44-11.12-11.57-16.89-28.38-17.31-50.44-.06-14.64,2.56-27.1,7.86-37.38,5.3-10.27,12.65-18.12,22.05-23.55,9.4-5.42,20.21-8.19,32.45-8.32,19.16.06,33.61,6.76,43.34,20.11,9.73,13.35,14.39,32.44,13.97,57.26ZM1030.31,749.97c7.23-.54,12.85-3.06,16.86-7.55,4.01-4.49,6.76-9.68,8.27-15.59,1.51-5.9,2.14-11.27,1.9-16.09-.12-4.22-.54-9.16-1.27-14.82-.72-5.66-2.26-11.13-4.61-16.41-2.35-5.27-6.03-9.38-11.03-12.34-5-2.95-11.78-3.86-20.34-2.71-10.97,1.99-18.61,7.56-22.91,16.72-4.31,9.16-5.89,20.28-4.75,33.35.36,4.94,1.82,10.21,4.38,15.82,2.56,5.6,6.55,10.34,11.98,14.19,5.42,3.86,12.59,5.66,21.51,5.42Z"/>
      <path class="cls-2" d="M1115.72,774.01c-4.1-.06-7.07-1.84-8.9-5.33-1.84-3.49-2.94-8.56-3.3-15.18-.42-6.87-.77-15.71-1.04-26.53-.27-10.82-.11-20.41.5-28.79.36-5.6,1.29-9.76,2.8-12.47,1.51-2.71,4.04-4.07,7.59-4.07,3.74-.06,6.66,1.64,8.77,5.11,2.11,3.47,3.28,9.12,3.53,16.95,2.23-6.33,6.64-11.71,13.24-16.13,6.6-4.43,14.26-6.67,23-6.73,3.8.24,6.63,1.3,8.5,3.16,1.87,1.87,2.86,4.01,2.98,6.42.12,2.41-.57,4.52-2.08,6.33-2.77,2.83-6.61,5.06-11.52,6.69-4.91,1.63-9.81,3.74-14.69,6.33-5.48,3.38-9.49,8.08-12.02,14.1-2.53,6.03-3.89,12.41-4.07,19.16-.12,6.93-.21,12.65-.27,17.17.06,3.68-.78,6.87-2.53,9.58-1.75,2.71-5.24,4.13-10.48,4.25Z"/>
      <path class="cls-2" d="M1266.85,698c1.14,15.18,1.75,29.38,1.81,42.57.06,13.2-.69,24.19-2.26,32.99-2.53,12.35-7.8,21.51-15.82,27.48-8.01,5.97-17.2,9.22-27.57,9.76-10.36.54-20.31-1.21-29.83-5.24-3.43-1.63-5.66-3.96-6.69-7-1.03-3.04-.81-6.16.63-9.36,1.51-3.07,3.72-5.11,6.64-6.1,2.92-.99,5.86-.98,8.81.05,5.6,2.23,11.69,3.3,18.26,3.21,6.57-.09,12.13-2.32,16.68-6.69s6.61-11.91,6.19-22.64c-9.04,4.64-17.11,7.34-24.22,8.09-7.11.75-13.26.03-18.44-2.17-5.18-2.2-9.43-5.41-12.74-9.63-3.31-4.22-5.74-8.98-7.28-14.28-1.54-5.3-2.21-10.69-2.03-16.18.6-10.12,3.3-18.33,8.09-24.63,4.79-6.3,10.65-10.7,17.58-13.2,6.93-2.5,13.87-3.13,20.83-1.9,6.96,1.24,12.85,4.26,17.67,9.08.18-3.8,1.28-6.78,3.3-8.95,2.02-2.17,5.05-3.1,9.08-2.8,3.43.24,6.07,1.64,7.91,4.2,1.84,2.56,2.97,7,3.39,13.33ZM1242.17,737.67c.24-8.25-.09-16.99-.99-26.21-7.83-5.06-14.67-7.5-20.52-7.32-5.85.18-10.39,2.23-13.65,6.15-3.25,3.92-4.91,8.95-4.97,15.09,0,5.48,1.48,10,4.43,13.56,2.95,3.56,7.4,5.42,13.33,5.6,5.94.18,13.39-2.11,22.37-6.87Z"/>
      <path class="cls-2" d="M1364.55,777.17c-4.46,0-7.53-1.37-9.22-4.11-1.69-2.74-2.38-6.01-2.08-9.81-3.25,4.82-7.83,8.32-13.74,10.48-5.91,2.17-12.29,3.04-19.16,2.62-4.7-.18-9.67-1.63-14.91-4.34s-9.85-7.09-13.83-13.15c-3.98-6.05-6.36-14.17-7.14-24.36-.66-11.39.45-20.8,3.34-28.25,2.89-7.44,7-13.14,12.34-17.08,5.33-3.95,11.25-6.37,17.76-7.28,8.86-1.14,16.21-.68,22.05,1.4,5.84,2.08,10.33,4.69,13.47,7.82.36-2.05,1.41-4.1,3.16-6.15,1.75-2.05,4.52-3.1,8.32-3.16,4.34.18,7.31,2.2,8.9,6.06,1.6,3.86,2.4,9.04,2.4,15.55.18,15.61-.03,32.69-.63,51.25-.3,8.92-1.18,14.93-2.62,18.03-1.45,3.1-4.25,4.59-8.41,4.47ZM1350.63,741.65c1.2-4.28,1.66-9.34,1.36-15.18-.3-5.84-.57-10.24-.81-13.2-2.89-4.1-6.76-7.11-11.61-9.04-4.85-1.93-9.76-2.38-14.73-1.36-4.97,1.03-9.07,3.86-12.29,8.5-3.22,4.64-4.69,11.48-4.38,20.52.54,6.75,2.59,12.01,6.15,15.77,3.55,3.77,7.76,6.06,12.61,6.87,4.85.81,9.47.15,13.87-1.99,4.4-2.14,7.68-5.77,9.85-10.89Z"/>
      <path class="cls-2" d="M1486.12,758.83c0,4.94-.99,8.71-2.98,11.3-1.99,2.59-5.51,3.89-10.58,3.89-3.19,0-5.83-1.2-7.91-3.62-2.08-2.41-3.36-6.3-3.84-11.66-.3-4.64-.56-9.91-.77-15.82-.21-5.9-.65-13.35-1.31-22.33-.24-7.59-2.2-12.53-5.88-14.82-3.68-2.29-7.94-2.56-12.79-.81-4.85,1.75-9.11,4.91-12.79,9.49-3.68,4.58-5.6,9.94-5.78,16.09-.12,10.85-.21,19.34-.27,25.49.06,5.06-.6,9.3-1.99,12.7-1.39,3.4-4.88,5.17-10.48,5.29-3.56.18-6.34-1.19-8.36-4.11-2.02-2.92-3.36-8.3-4.02-16.13-.66-14.88-.94-34.38-.81-58.48.06-8.86,4.07-13.29,12.02-13.29s11.69,6.72,11.21,20.16c2.77-6.81,7.4-12.17,13.87-16.09,6.48-3.92,12.91-5.9,19.3-5.97,10.54.18,18.32,3.31,23.32,9.4,5,6.09,7.98,13.65,8.95,22.69,1.63,13.44,2.26,28.98,1.9,46.64Z"/>
      <path class="cls-2" d="M1531.77,658.59c-.12,4.82-1.58,8.35-4.38,10.58-2.8,2.23-6.19,3.41-10.17,3.53-5,.06-8.89-1.29-11.66-4.07-2.77-2.77-4.22-5.99-4.34-9.67.06-4.1,1.58-7.49,4.56-10.17,2.98-2.68,6.76-4.11,11.34-4.29,4.46-.06,8.01,1.16,10.67,3.66,2.65,2.5,3.98,5.98,3.98,10.44ZM1530.32,698.72c.3,10.36.59,21.32.86,32.85.27,11.54.26,20.2-.04,25.99-.36,6.15-1.52,10.53-3.48,13.15-1.96,2.62-5.02,3.84-9.17,3.66-8.01.12-12.56-5.33-13.65-16.36-1.63-14.7-2.05-33.35-1.27-55.95.3-7.71,1.61-13.07,3.93-16.09,2.32-3.01,6.1-4.46,11.34-4.34,4.22.12,7.17,1.72,8.86,4.79,1.69,3.07,2.56,7.17,2.62,12.29Z"/>
      <path class="cls-2" d="M1620.8,694.02c1.02,5.91-1.91,13.11-8.81,21.6-6.9,8.5-19.48,20.16-37.74,34.98,15.91.06,26.63.03,32.18-.09,5.42.06,9.54,1.15,12.34,3.25,2.8,2.11,4.17,4.79,4.11,8.04.06,2.29-.72,4.35-2.35,6.19-1.63,1.84-4.79,3.3-9.49,4.38-4.7,1.08-11.57,1.63-20.61,1.63-13.98,0-24.18-.66-30.6-1.99-6.42-1.32-10.48-3.21-12.2-5.65-1.72-2.44-2.49-5.35-2.3-8.72,0-3.31,1.84-7,5.51-11.07,3.67-4.07,8.33-8.44,13.96-13.1,5.63-4.67,11.4-9.57,17.31-14.69,5.9-5.12,11.12-10.33,15.64-15.64-10.18-.06-19.88-.24-29.1-.54-7.9-.3-13.42-1.27-16.59-2.89-3.16-1.63-4.78-3.64-4.84-6.06-.42-3.55.53-6.37,2.85-8.45,2.32-2.08,7.37-3.21,15.14-3.39,13.92-.36,24.78-.36,32.58,0,7.8.36,13.42,1.46,16.86,3.3,3.43,1.84,5.48,4.81,6.15,8.9Z"/>
      <path class="cls-2" d="M1714.71,777.17c-4.46,0-7.53-1.37-9.22-4.11-1.69-2.74-2.38-6.01-2.08-9.81-3.25,4.82-7.83,8.32-13.74,10.48-5.91,2.17-12.29,3.04-19.16,2.62-4.7-.18-9.67-1.63-14.91-4.34-5.24-2.71-9.85-7.09-13.83-13.15-3.98-6.05-6.36-14.17-7.14-24.36-.66-11.39.45-20.8,3.34-28.25,2.89-7.44,7-13.14,12.34-17.08,5.33-3.95,11.25-6.37,17.76-7.28,8.86-1.14,16.21-.68,22.05,1.4,5.84,2.08,10.33,4.69,13.47,7.82.36-2.05,1.41-4.1,3.16-6.15,1.75-2.05,4.52-3.1,8.32-3.16,4.34.18,7.31,2.2,8.9,6.06,1.6,3.86,2.4,9.04,2.4,15.55.18,15.61-.03,32.69-.63,51.25-.3,8.92-1.18,14.93-2.62,18.03-1.45,3.1-4.25,4.59-8.41,4.47ZM1700.79,741.65c1.2-4.28,1.66-9.34,1.36-15.18-.3-5.84-.57-10.24-.81-13.2-2.89-4.1-6.76-7.11-11.61-9.04-4.85-1.93-9.76-2.38-14.73-1.36-4.97,1.03-9.07,3.86-12.29,8.5-3.22,4.64-4.69,11.48-4.38,20.52.54,6.75,2.59,12.01,6.15,15.77,3.55,3.77,7.76,6.06,12.61,6.87,4.85.81,9.47.15,13.87-1.99,4.4-2.14,7.68-5.77,9.85-10.89Z"/>
      <path class="cls-2" d="M1785.21,667.26l-.18,15.46c9.1.36,15.26,1.3,18.48,2.8,3.22,1.51,4.71,4.22,4.47,8.13.18,3.86-1.3,6.61-4.43,8.27-3.13,1.66-8.98,2.55-17.53,2.67-.54,8.62-.71,17.97-.5,28.06.21,10.09.35,18.36.41,24.81.12,5.12-.69,9.14-2.44,12.07-1.75,2.92-4.94,4.42-9.58,4.47-4.76,0-8.11-1.37-10.03-4.11-1.93-2.74-2.89-6.94-2.89-12.61-.24-15.55-.45-32.87-.63-51.97-8.74,0-14.58-.87-17.53-2.62-2.95-1.75-4.4-4.46-4.34-8.13-.36-3.62.99-6.31,4.07-8.09,3.07-1.78,9.22-2.79,18.44-3.03l.54-16c.24-3.74,1.22-6.76,2.94-9.08,1.72-2.32,4.59-3.6,8.63-3.84,4.28,0,7.38,1.24,9.31,3.71,1.93,2.47,2.86,5.48,2.8,9.04Z"/>
      <path class="cls-2" d="M1848.48,658.59c-.12,4.82-1.58,8.35-4.38,10.58-2.8,2.23-6.19,3.41-10.17,3.53-5,.06-8.89-1.29-11.66-4.07-2.77-2.77-4.22-5.99-4.34-9.67.06-4.1,1.58-7.49,4.56-10.17,2.98-2.68,6.76-4.11,11.34-4.29,4.46-.06,8.01,1.16,10.67,3.66,2.65,2.5,3.98,5.98,3.98,10.44ZM1847.03,698.72c.3,10.36.59,21.32.86,32.85.27,11.54.26,20.2-.04,25.99-.36,6.15-1.52,10.53-3.48,13.15-1.96,2.62-5.02,3.84-9.17,3.66-8.01.12-12.56-5.33-13.65-16.36-1.63-14.7-2.05-33.35-1.27-55.95.3-7.71,1.61-13.07,3.93-16.09,2.32-3.01,6.1-4.46,11.34-4.34,4.22.12,7.17,1.72,8.86,4.79,1.69,3.07,2.56,7.17,2.62,12.29Z"/>
      <path class="cls-2" d="M1961.28,728.09c-.36,14.82-5.09,26.65-14.19,35.48-9.1,8.83-22.21,13.36-39.32,13.6-10.3-.18-18.65-2.74-25.04-7.68-6.39-4.94-11.04-11-13.96-18.17-2.92-7.17-4.33-14.19-4.2-21.06.06-6.93,1.61-14.1,4.65-21.51,3.04-7.41,8.09-13.75,15.14-19.03,7.05-5.27,16.66-8.09,28.83-8.45,12.11,0,21.72,2.37,28.83,7.09,7.11,4.73,12.16,10.68,15.14,17.85,2.98,7.17,4.35,14.46,4.11,21.87ZM1937.96,729.45c.48-7.35-1.15-13.47-4.88-18.35-3.74-4.88-10.39-7.41-19.98-7.59-6.39.06-11.36,1.4-14.91,4.02-3.56,2.62-6.01,5.94-7.37,9.94-1.36,4.01-1.98,8.18-1.85,12.52.18,7.05,2.26,12.9,6.24,17.53,3.98,4.64,9.34,7.05,16.09,7.23,4.28.06,8.37-.57,12.29-1.9,3.92-1.32,7.2-3.83,9.85-7.5,2.65-3.67,4.16-8.98,4.52-15.91Z"/>
      <path class="cls-2" d="M2068.12,758.83c0,4.94-.99,8.71-2.98,11.3-1.99,2.59-5.51,3.89-10.58,3.89-3.19,0-5.83-1.2-7.91-3.62-2.08-2.41-3.36-6.3-3.84-11.66-.3-4.64-.56-9.91-.77-15.82-.21-5.9-.65-13.35-1.31-22.33-.24-7.59-2.2-12.53-5.88-14.82-3.68-2.29-7.94-2.56-12.79-.81-4.85,1.75-9.11,4.91-12.79,9.49-3.68,4.58-5.6,9.94-5.78,16.09-.12,10.85-.21,19.34-.27,25.49.06,5.06-.6,9.3-1.99,12.7-1.39,3.4-4.88,5.17-10.48,5.29-3.56.18-6.34-1.19-8.36-4.11-2.02-2.92-3.36-8.3-4.02-16.13-.66-14.88-.94-34.38-.81-58.48.06-8.86,4.07-13.29,12.02-13.29s11.69,6.72,11.21,20.16c2.77-6.81,7.4-12.17,13.87-16.09,6.48-3.92,12.91-5.9,19.3-5.97,10.54.18,18.32,3.31,23.32,9.4,5,6.09,7.98,13.65,8.95,22.69,1.63,13.44,2.26,28.98,1.9,46.64Z"/>
    </g>
    <g>
      <path class="cls-2" d="M720.7,438.92c1.64,10.06,3.16,20.14,4.54,30.24-.4-2.94-.79-5.88-1.19-8.82,8.51,63.4,11.6,128.36,3.08,191.94.4-2.94.79-5.88,1.19-8.82-3.09,22.72-7.25,45.5-16,66.81,1.11-2.64,2.23-5.28,3.34-7.93-4.11,9.73-9.16,18.96-15.62,27.34,1.73-2.24,3.46-4.48,5.19-6.72-4.46,5.62-9.44,10.68-15.06,15.15,2.24-1.73,4.48-3.46,6.72-5.19-4.92,3.77-10.11,6.9-15.82,9.34,2.64-1.11,5.28-2.23,7.93-3.34-5.18,2.06-10.46,3.47-15.98,4.24,2.94-.4,5.88-.79,8.82-1.19-5.9.69-11.74.62-17.63-.12,2.94.4,5.88.79,8.82,1.19-6.93-1.01-13.58-2.9-20.08-5.53,2.64,1.11,5.28,2.23,7.93,3.34-8.01-3.41-15.45-7.81-22.39-13.06,2.24,1.73,4.48,3.46,6.72,5.19-8.82-6.87-16.2-14.91-23.02-23.73,1.73,2.24,3.46,4.48,5.19,6.72-14.1-18.65-23.95-39.66-33.04-61.08,1.11,2.64,2.23,5.28,3.34,7.93-20.84-49.4-37.67-100.34-57.5-150.13-17.56-44.08-36.58-90.75-79.31-116.31-24.11-14.42-55.09-18.08-81.73-8.78-27.74,9.68-48.96,29.02-64.81,53.43-13.41,20.66-21.85,44.89-27.76,68.69-6.72,27.08-10.75,54.89-13.74,82.61-6.59,61.05-4.72,122.72,2.25,183.65,1.04,9.08,3.01,16.75,9.72,23.46,5.75,5.75,15.2,10.09,23.46,9.72,8.58-.38,17.48-3.2,23.46-9.72,5.56-6.06,10.7-14.91,9.72-23.46-7.63-66.61-9.03-134.05-.2-200.62-.4,2.94-.79,5.88-1.19,8.82,4.34-31.98,10.15-64.58,22.75-94.47-1.11,2.64-2.23,5.28-3.34,7.93,4.76-11.02,10.53-21.49,17.78-31.08-1.73,2.24-3.46,4.48-5.19,6.72,5.33-6.85,11.29-13.17,18.09-18.58-2.24,1.73-4.48,3.46-6.72,5.19,5.46-4.17,11.31-7.58,17.64-10.26-2.64,1.11-5.28,2.23-7.93,3.34,5.78-2.3,11.69-3.89,17.86-4.75l-8.82,1.19c5.64-.66,11.21-.67,16.85-.01-2.94-.4-5.88-.79-8.82-1.19,5.72.81,11.19,2.28,16.55,4.46-2.64-1.11-5.28-2.23-7.93-3.34,6.21,2.71,11.9,6.26,17.29,10.34-2.24-1.73-4.48-3.46-6.72-5.19,7.49,5.86,14.02,12.66,19.84,20.17-1.73-2.24-3.46-4.48-5.19-6.72,11.39,15.03,19.63,32.04,26.96,49.34-1.11-2.64-2.23-5.28-3.34-7.93,20.36,48.46,36.88,98.41,56.25,147.25,20.2,50.91,42.58,107.43,92.57,136.21,24.51,14.11,53.78,19.98,81.49,12.99,27.28-6.88,49.24-26.46,64.34-49.54,12.14-18.56,19.58-40.58,24.34-62.13,5.45-24.65,8.41-50.03,10.17-75.19,4.62-66.11-1.46-132.37-12.13-197.63-1.26-7.7-8.79-16.05-15.25-19.83-7.11-4.16-17.59-5.93-25.57-3.34-8.03,2.6-15.77,7.57-19.83,15.25-4.42,8.36-4.86,16.28-3.34,25.57h0Z"/>
      <path class="cls-2" d="M394.76,349.59c20.89,0,40.9-18.37,39.93-39.93-.97-21.64-17.55-39.93-39.93-39.93-20.89,0-40.9,18.37-39.93,39.93.97,21.64,17.55,39.93,39.93,39.93h0Z"/>
      <path class="cls-2" d="M732.46,349.59c20.89,0,40.9-18.37,39.93-39.93-.97-21.64-17.55-39.93-39.93-39.93-20.89,0-40.9,18.37-39.93,39.93.97,21.64,17.55,39.93,39.93,39.93h0Z"/>
    </g>
  </g>
</svg>